<?xml version="1.0" standalone="no"?>
<!DOCTYPE svg PUBLIC "-//W3C//DTD SVG 20010904//EN"
 "http://www.w3.org/TR/2001/REC-SVG-20010904/DTD/svg10.dtd">
<svg version="1.0" xmlns="http://www.w3.org/2000/svg"
 width="500.000000pt" height="500.000000pt" viewBox="0 0 500.000000 500.000000"
 preserveAspectRatio="xMidYMid meet">
<metadata>
Created by potrace 1.11, written by Peter Selinger 2001-2013
</metadata>
<g transform="translate(0.000000,500.000000) scale(0.100000,-0.100000)"
fill="#000000" stroke="none">
<path d="M2275 4363 c-205 -14 -472 -70 -627 -132 -237 -94 -398 -200 -573
-375 -156 -157 -240 -272 -338 -466 -114 -226 -191 -476 -238 -780 -25 -164
-41 -707 -37 -1275 l3 -420 27 -57 c37 -80 107 -152 187 -191 l66 -32 235 0
c233 0 235 0 291 26 104 49 182 140 214 251 14 49 15 119 13 565 l-3 508 -27
58 c-54 115 -123 178 -238 217 -57 19 -80 21 -267 18 l-204 -3 6 80 c72 909
471 1478 1165 1659 287 75 742 86 1060 25 433 -84 767 -311 982 -669 62 -103
73 -126 123 -250 93 -230 136 -435 170 -795 l5 -50 -228 0 -227 0 -65 -31
c-114 -54 -197 -160 -220 -283 -13 -71 -13 -941 0 -1011 24 -126 103 -230 215
-286 l60 -29 240 0 240 0 59 30 c76 38 146 108 183 182 l28 58 3 680 c3 713
-2 868 -40 1090 -156 930 -684 1511 -1503 1655 -197 35 -511 49 -740 33z"/>
<path d="M2119 1978 c-24 -24 -66 -72 -92 -106 -27 -35 -50 -62 -52 -60 -2 2
5 32 15 67 11 35 18 67 14 72 -3 5 -23 9 -44 9 -37 0 -43 -4 -92 -70 -58 -77
-84 -91 -72 -37 11 48 10 70 -3 74 -12 4 -32 -51 -58 -167 -10 -41 -21 -82
-26 -91 -4 -9 -17 -47 -27 -85 -11 -38 -22 -76 -26 -85 -9 -21 43 -47 55 -27
5 7 9 19 9 26 0 28 147 278 157 268 9 -9 -31 -150 -50 -179 -25 -37 -16 -57
25 -57 43 1 86 38 137 120 22 36 47 72 54 80 8 8 24 30 37 48 13 17 27 32 30
32 12 0 1 -107 -14 -144 -8 -20 -20 -61 -25 -93 -12 -62 -3 -84 28 -76 24 6
38 36 46 98 10 79 13 97 29 155 8 30 18 77 22 105 4 27 14 65 22 84 14 34 13
36 -13 58 -14 13 -30 23 -34 23 -5 0 -28 -19 -52 -42z"/>
<path d="M2890 1861 c-14 -27 -13 -31 10 -31 16 0 40 26 40 44 0 15 -40 4 -50
-13z"/>
<path d="M243 1802 l-113 -67 0 -261 0 -262 112 -73 c62 -41 116 -75 120 -77
4 -2 8 179 8 402 0 223 -3 406 -7 405 -5 0 -59 -31 -120 -67z"/>
<path d="M4650 1466 l0 -406 58 37 c31 20 83 54 115 75 l57 39 0 263 0 264
-77 45 c-43 25 -95 55 -115 67 l-38 22 0 -406z"/>
<path d="M2601 1847 c-27 -33 -41 -89 -35 -136 6 -46 4 -50 -30 -85 -26 -25
-46 -36 -66 -36 -36 0 -37 12 -10 90 36 102 22 117 -32 36 -37 -54 -94 -88
-105 -60 -3 8 6 50 19 93 28 88 24 113 -14 93 -30 -16 -99 -136 -105 -183 -4
-30 -1 -39 18 -53 31 -21 57 -20 97 4 l32 20 0 -33 c0 -43 15 -57 60 -57 40 0
101 37 138 85 l22 28 15 -36 c8 -20 15 -39 15 -43 0 -3 -18 -26 -40 -52 -78
-88 -61 -138 40 -123 15 3 64 79 74 116 8 33 22 51 59 79 l47 36 0 -29 c0 -38
41 -71 86 -71 29 0 84 33 106 65 7 10 8 10 24 -20 15 -28 72 -55 115 -55 49 0
109 45 154 115 19 30 35 61 35 67 0 6 -29 -17 -64 -51 -88 -84 -154 -111 -176
-72 -12 23 18 115 51 153 l19 23 -10 -28 c-12 -33 -6 -47 19 -47 22 0 31 26
31 93 l0 47 -43 0 c-56 0 -91 -36 -141 -141 -28 -60 -42 -79 -66 -89 -24 -10
-34 -10 -43 -1 -15 15 -10 73 10 134 12 33 14 50 7 57 -17 17 -61 -8 -69 -37
-8 -32 -95 -118 -134 -131 -32 -11 -36 -8 -71 61 -12 23 -12 33 -1 60 22 55
24 76 7 102 -19 28 -29 31 -45 12z m14 -370 c-12 -48 -75 -86 -75 -45 0 11 71
80 77 74 2 -2 1 -15 -2 -29z"/>
</g>
</svg>
